<svg width="1200" height="900" viewBox="0 0 1200 900" fill="none" xmlns="http://www.w3.org/2000/svg">
  <defs>
    <linearGradient id="bg" x1="0" y1="0" x2="1" y2="1">
      <stop offset="0%" stop-color="#EFF3F8"/>
      <stop offset="100%" stop-color="#E4EAF2"/>
    </linearGradient>
    <linearGradient id="desk" x1="0" y1="0" x2="1" y2="1">
      <stop offset="0%" stop-color="#D8C3A2"/>
      <stop offset="100%" stop-color="#C2A175"/>
    </linearGradient>
    <filter id="blur"><feGaussianBlur stdDeviation="2.2"/></filter>
  </defs>
  <rect width="1200" height="900" fill="url(#bg)"/>
  <rect x="110" y="150" width="980" height="600" rx="22" fill="url(#desk)"/>
  <rect x="180" y="230" width="530" height="330" rx="18" fill="#FDFEFE"/>
  <rect x="220" y="270" width="360" height="18" rx="9" fill="#B7C6D9"/>
  <rect x="220" y="310" width="440" height="12" rx="6" fill="#C9D5E3"/>
  <rect x="220" y="340" width="390" height="12" rx="6" fill="#C9D5E3"/>
  <rect x="220" y="370" width="420" height="12" rx="6" fill="#C9D5E3"/>
  <rect x="730" y="220" width="220" height="300" rx="20" fill="#10233F"/>
  <rect x="765" y="270" width="145" height="10" rx="5" fill="#B08D57"/>
  <rect x="765" y="300" width="120" height="10" rx="5" fill="#D0DEE7"/>
  <rect x="765" y="325" width="130" height="10" rx="5" fill="#D0DEE7"/>
  <rect x="765" y="350" width="95" height="10" rx="5" fill="#D0DEE7"/>
  <ellipse cx="940" cy="620" rx="80" ry="42" fill="#F8F8F9"/>
  <circle cx="935" cy="610" r="28" fill="#FFFFFF"/>
  <circle cx="935" cy="610" r="14" fill="#E7D7BE"/>
  <rect x="445" y="585" width="190" height="36" rx="18" fill="#8B6D3F" filter="url(#blur)" opacity="0.36"/>
  <rect x="425" y="570" width="230" height="34" rx="17" fill="#1B2E4F"/>
</svg>
